<svg width="230" height="53" viewBox="0 0 230 53" fill="none" xmlns="http://www.w3.org/2000/svg">
<path d="M203.5 0H26.5C11.8645 0 0 11.8645 0 26.5C0 41.1355 11.8645 53 26.5 53H203.5C218.136 53 230 41.1355 230 26.5C230 11.8645 218.136 0 203.5 0Z" fill="white"/>
<path d="M23.6502 31.1491C25.8448 31.1491 27.4109 29.5991 27.4055 27.4737C27.4109 25.3643 25.9407 23.8303 23.9538 23.8303C23.1442 23.8303 22.3931 24.1392 21.967 24.5547H21.9031L22.2493 21.5025H26.8782V20.0909H20.8803L20.2678 25.5881L21.7752 25.8118C22.1854 25.4442 22.9205 25.1939 23.581 25.1939C24.8754 25.2045 25.8129 26.174 25.8129 27.5057C25.8129 28.8161 24.902 29.7642 23.6502 29.7642C22.5955 29.7642 21.7592 29.093 21.674 28.1555H20.076C20.1399 29.892 21.6474 31.1491 23.6502 31.1491ZM30.0409 31.1012C30.6215 31.1012 31.1063 30.6271 31.1063 30.0359C31.1063 29.4553 30.6215 28.9759 30.0409 28.9759C29.455 28.9759 28.9756 29.4553 28.9756 30.0359C28.9756 30.6271 29.455 31.1012 30.0409 31.1012ZM36.6061 31.1811C39.1256 31.1811 40.6011 29.125 40.6011 25.5508C40.6011 22.0032 39.1043 19.9418 36.6061 19.9418C34.1025 19.9418 32.6111 21.9979 32.6057 25.5508C32.6057 29.1197 34.0812 31.1758 36.6061 31.1811ZM36.6061 29.7589C35.1306 29.7589 34.241 28.2781 34.241 25.5508C34.2464 22.8342 35.1359 21.3374 36.6061 21.3374C38.0709 21.3374 38.9658 22.8342 38.9658 25.5508C38.9658 28.2781 38.0763 29.7589 36.6061 29.7589ZM46.6096 31H48.2556V26.8718H50.4928C50.5301 26.8718 50.5621 26.8718 50.5993 26.8718L52.8153 31H54.6903L52.2719 26.5842C53.6089 26.0888 54.2748 24.9755 54.2748 23.5107C54.2748 21.5025 53.0283 20.0909 50.4981 20.0909H46.6096V31ZM48.2556 25.4549V21.5025H50.3224C51.947 21.5025 52.6182 22.2749 52.6182 23.5107C52.6182 24.7411 51.947 25.4549 50.3437 25.4549H48.2556ZM58.5308 31.1811C59.8838 31.1811 60.6455 30.494 60.9491 29.8814H61.0131V31H62.5684V25.5668C62.5684 23.1857 60.6934 22.7116 59.3937 22.7116C57.9129 22.7116 56.5493 23.3082 56.0166 24.7997L57.5134 25.1406C57.7478 24.56 58.3444 24.0007 59.415 24.0007C60.4431 24.0007 60.9704 24.5387 60.9704 25.4656V25.5028C60.9704 26.0835 60.3738 26.0728 58.9037 26.2433C57.3536 26.4244 55.7662 26.8292 55.7662 28.6882C55.7662 30.2969 56.9754 31.1811 58.5308 31.1811ZM58.877 29.9027C57.9768 29.9027 57.327 29.4979 57.327 28.7095C57.327 27.8572 58.0834 27.5536 59.0049 27.4311C59.5216 27.3619 60.7467 27.2234 60.9758 26.9943V28.049C60.9758 29.0185 60.2034 29.9027 58.877 29.9027ZM68.5091 22.8182H66.8311V20.858H65.2385V22.8182H64.04V24.0966H65.2385V28.9279C65.2331 30.4141 66.3677 31.1332 67.6248 31.1065C68.1309 31.1012 68.4718 31.0053 68.6582 30.9361L68.3706 29.6204C68.264 29.6417 68.0669 29.6896 67.8113 29.6896C67.2946 29.6896 66.8311 29.5192 66.8311 28.5977V24.0966H68.5091V22.8182ZM70.2709 31H71.8635V22.8182H70.2709V31ZM71.0752 21.5558C71.6238 21.5558 72.0819 21.1296 72.0819 20.6076C72.0819 20.0856 71.6238 19.6541 71.0752 19.6541C70.5212 19.6541 70.0684 20.0856 70.0684 20.6076C70.0684 21.1296 70.5212 21.5558 71.0752 21.5558ZM75.5989 26.142C75.5989 24.837 76.3979 24.0913 77.5059 24.0913C78.5872 24.0913 79.2424 24.7997 79.2424 25.9876V31H80.8351V25.7958C80.8351 23.7717 79.7218 22.7116 78.0492 22.7116C76.8187 22.7116 76.0144 23.2816 75.6362 24.1499H75.535V22.8182H74.0062V31H75.5989V26.142ZM86.4015 34.2386C88.4842 34.2386 90.0929 33.2852 90.0929 31.1811V22.8182H88.5321V24.1445H88.415C88.1326 23.6385 87.568 22.7116 86.0446 22.7116C84.0684 22.7116 82.6142 24.2724 82.6142 26.8771C82.6142 29.4872 84.1003 30.8775 86.0339 30.8775C87.536 30.8775 88.1167 30.0305 88.4043 29.5085H88.5055V31.1172C88.5055 32.4009 87.6266 32.9549 86.4174 32.9549C85.0911 32.9549 84.5744 32.2891 84.2921 31.8203L82.9231 32.3849C83.3546 33.3864 84.4466 34.2386 86.4015 34.2386ZM86.3855 29.5565C84.9632 29.5565 84.2228 28.4645 84.2228 26.8558C84.2228 25.2844 84.9473 24.0646 86.3855 24.0646C87.7757 24.0646 88.5215 25.1992 88.5215 26.8558C88.5215 28.5444 87.7598 29.5565 86.3855 29.5565ZM98.3599 24.8157C98.0297 23.5426 97.0336 22.7116 95.2651 22.7116C93.4167 22.7116 92.1064 23.6864 92.1064 25.1353C92.1064 26.2965 92.8095 27.0689 94.3436 27.4098L95.7285 27.7134C96.5169 27.8892 96.8844 28.2408 96.8844 28.7521C96.8844 29.386 96.2079 29.8814 95.1639 29.8814C94.2104 29.8814 93.5978 29.4712 93.4061 28.6669L91.8667 28.9013C92.133 30.3501 93.3368 31.1651 95.1745 31.1651C97.1507 31.1651 98.5197 30.1158 98.5197 28.6349C98.5197 27.479 97.7846 26.7653 96.2825 26.419L94.9828 26.1207C94.0826 25.9077 93.6937 25.604 93.699 25.0501C93.6937 24.4215 94.3755 23.9741 95.2811 23.9741C96.2718 23.9741 96.7299 24.5227 96.9164 25.0714L98.3599 24.8157Z" fill="#1D1D1F"/>
<path d="M121.799 20.216L119.94 23.987L115.78 24.594C115.612 24.6194 115.455 24.6911 115.325 24.8011C115.196 24.9111 115.1 25.055 115.048 25.2166C114.996 25.3782 114.99 25.5511 115.031 25.7158C115.072 25.8805 115.158 26.0306 115.28 26.149L118.29 29.082L117.578 33.225C117.549 33.3924 117.568 33.5645 117.632 33.7217C117.696 33.879 117.803 34.0153 117.94 34.1151C118.078 34.2149 118.24 34.2744 118.41 34.2867C118.579 34.2991 118.749 34.2639 118.899 34.185L122.621 32.229L126.343 34.185C126.493 34.2639 126.663 34.2991 126.832 34.2867C127.002 34.2744 127.164 34.2149 127.302 34.1151C127.439 34.0153 127.546 33.879 127.61 33.7217C127.674 33.5645 127.693 33.3924 127.664 33.225L126.948 29.081L129.958 26.148C130.08 26.0296 130.166 25.8795 130.207 25.7148C130.248 25.5501 130.242 25.3772 130.19 25.2156C130.138 25.054 130.042 24.9101 129.913 24.8001C129.783 24.6901 129.626 24.6184 129.458 24.593L125.298 23.986L123.434 20.216C123.359 20.0636 123.242 19.9353 123.098 19.8455C122.953 19.7558 122.787 19.7083 122.616 19.7083C122.446 19.7083 122.28 19.7558 122.135 19.8455C121.991 19.9353 121.874 20.0636 121.799 20.216Z" fill="#06C167"/>
<path d="M142.799 20.216L140.94 23.987L136.78 24.594C136.612 24.6194 136.455 24.6911 136.325 24.8011C136.196 24.9111 136.1 25.055 136.048 25.2166C135.996 25.3782 135.99 25.5511 136.031 25.7158C136.072 25.8805 136.158 26.0306 136.28 26.149L139.29 29.082L138.578 33.225C138.549 33.3924 138.568 33.5645 138.632 33.7217C138.696 33.879 138.803 34.0153 138.94 34.1151C139.078 34.2149 139.24 34.2744 139.41 34.2867C139.579 34.2991 139.749 34.2639 139.899 34.185L143.621 32.229L147.343 34.185C147.493 34.2639 147.663 34.2991 147.832 34.2867C148.002 34.2744 148.164 34.2149 148.302 34.1151C148.439 34.0153 148.546 33.879 148.61 33.7217C148.674 33.5645 148.693 33.3924 148.664 33.225L147.948 29.081L150.958 26.148C151.08 26.0296 151.166 25.8795 151.207 25.7148C151.248 25.5501 151.242 25.3772 151.19 25.2156C151.138 25.054 151.042 24.9101 150.913 24.8001C150.783 24.6901 150.626 24.6184 150.458 24.593L146.298 23.986L144.434 20.216C144.359 20.0636 144.242 19.9353 144.098 19.8455C143.953 19.7558 143.787 19.7083 143.616 19.7083C143.446 19.7083 143.28 19.7558 143.135 19.8455C142.991 19.9353 142.874 20.0636 142.799 20.216Z" fill="#06C167"/>
<path d="M163.799 20.216L161.94 23.987L157.78 24.594C157.612 24.6194 157.455 24.6911 157.325 24.8011C157.196 24.9111 157.1 25.055 157.048 25.2166C156.996 25.3782 156.99 25.5511 157.031 25.7158C157.072 25.8805 157.158 26.0306 157.28 26.149L160.29 29.082L159.578 33.225C159.549 33.3924 159.568 33.5645 159.632 33.7217C159.696 33.879 159.803 34.0153 159.94 34.1151C160.078 34.2149 160.24 34.2744 160.41 34.2867C160.579 34.2991 160.749 34.2639 160.899 34.185L164.621 32.229L168.343 34.185C168.493 34.2639 168.663 34.2991 168.832 34.2867C169.002 34.2744 169.164 34.2149 169.302 34.1151C169.439 34.0153 169.546 33.879 169.61 33.7217C169.674 33.5645 169.693 33.3924 169.664 33.225L168.948 29.081L171.958 26.148C172.08 26.0296 172.166 25.8795 172.207 25.7148C172.248 25.5501 172.242 25.3772 172.19 25.2156C172.138 25.054 172.042 24.9101 171.913 24.8001C171.783 24.6901 171.626 24.6184 171.458 24.593L167.298 23.986L165.434 20.216C165.359 20.0636 165.242 19.9353 165.098 19.8455C164.953 19.7558 164.787 19.7083 164.616 19.7083C164.446 19.7083 164.28 19.7558 164.135 19.8455C163.991 19.9353 163.874 20.0636 163.799 20.216Z" fill="#06C167"/>
<path d="M184.799 20.216L182.94 23.987L178.78 24.594C178.612 24.6194 178.455 24.6911 178.325 24.8011C178.196 24.9111 178.1 25.055 178.048 25.2166C177.996 25.3782 177.99 25.5511 178.031 25.7158C178.072 25.8805 178.158 26.0306 178.28 26.149L181.29 29.082L180.578 33.225C180.549 33.3924 180.568 33.5645 180.632 33.7217C180.696 33.879 180.803 34.0153 180.94 34.1151C181.078 34.2149 181.24 34.2744 181.41 34.2867C181.579 34.2991 181.749 34.2639 181.899 34.185L185.621 32.229L189.343 34.185C189.493 34.2639 189.663 34.2991 189.832 34.2867C190.002 34.2744 190.164 34.2149 190.302 34.1151C190.439 34.0153 190.546 33.879 190.61 33.7217C190.674 33.5645 190.693 33.3924 190.664 33.225L189.948 29.081L192.958 26.148C193.08 26.0296 193.166 25.8795 193.207 25.7148C193.248 25.5501 193.242 25.3772 193.19 25.2156C193.138 25.054 193.042 24.9101 192.913 24.8001C192.783 24.6901 192.626 24.6184 192.458 24.593L188.298 23.986L186.434 20.216C186.359 20.0636 186.242 19.9353 186.098 19.8455C185.953 19.7558 185.787 19.7083 185.616 19.7083C185.446 19.7083 185.28 19.7558 185.135 19.8455C184.991 19.9353 184.874 20.0636 184.799 20.216Z" fill="#06C167"/>
<path d="M205.799 20.216L203.94 23.987L199.78 24.594C199.612 24.6194 199.455 24.6911 199.325 24.8011C199.196 24.9111 199.1 25.055 199.048 25.2166C198.996 25.3782 198.99 25.5511 199.031 25.7158C199.072 25.8805 199.158 26.0306 199.28 26.149L202.29 29.082L201.578 33.225C201.549 33.3924 201.568 33.5645 201.632 33.7217C201.696 33.879 201.803 34.0153 201.94 34.1151C202.078 34.2149 202.24 34.2744 202.41 34.2867C202.579 34.2991 202.749 34.2639 202.899 34.185L206.621 32.229L210.343 34.185C210.493 34.2639 210.663 34.2991 210.832 34.2867C211.002 34.2744 211.164 34.2149 211.302 34.1151C211.439 34.0153 211.546 33.879 211.61 33.7217C211.674 33.5645 211.693 33.3924 211.664 33.225L210.948 29.081L213.958 26.148C214.08 26.0296 214.166 25.8795 214.207 25.7148C214.248 25.5501 214.242 25.3772 214.19 25.2156C214.138 25.054 214.042 24.9101 213.913 24.8001C213.783 24.6901 213.626 24.6184 213.458 24.593L209.298 23.986L207.434 20.216C207.359 20.0636 207.242 19.9353 207.098 19.8455C206.953 19.7558 206.787 19.7083 206.616 19.7083C206.446 19.7083 206.28 19.7558 206.135 19.8455C205.991 19.9353 205.874 20.0636 205.799 20.216Z" fill="#06C167"/>
</svg>
